name GIL12_free4.mot
datacolumns 153
datarows 4
range 0.31666672 0.34166670
endheader

                time	           pelvis_tx	           pelvis_ty	           pelvis_tz	         pelvis_tilt	         pelvis_list	     pelvis_rotation	       hip_flexion_r	     hip_adduction_r	      hip_rotation_r	        knee_angle_r	       ankle_angle_r	    subtalar_angle_r	         mtp_angle_r	       hip_flexion_l	     hip_adduction_l	      hip_rotation_l	        knee_angle_l	       ankle_angle_l	    subtalar_angle_l	         mtp_angle_l	    lumbar_extension	      lumbar_bending	     lumbar_rotation	     ground_force_vx	     ground_force_vy	     ground_force_vz	     ground_force_px	     ground_force_py	     ground_force_pz	     ground_force_vx	     ground_force_vy	     ground_force_vz	     ground_force_px	     ground_force_py	     ground_force_pz	     ground_torque_x	     ground_torque_y	     ground_torque_z	     ground_torque_x	     ground_torque_y	     ground_torque_z	    ground_marker_px	    ground_marker_py	    ground_marker_pz	    ground_marker_px	    ground_marker_py	    ground_marker_pz	    ground_marker_px	    ground_marker_py	    ground_marker_pz	    ground_marker_px	    ground_marker_py	    ground_marker_pz	    ground_marker_px	    ground_marker_py	    ground_marker_pz	    ground_marker_px	    ground_marker_py	    ground_marker_pz	    ground_marker_px	    ground_marker_py	    ground_marker_pz	    ground_marker_px	    ground_marker_py	    ground_marker_pz	    ground_marker_px	    ground_marker_py	    ground_marker_pz	    ground_marker_px	    ground_marker_py	    ground_marker_pz	    ground_marker_px	    ground_marker_py	    ground_marker_pz	    ground_marker_px	    ground_marker_py	    ground_marker_pz	    ground_marker_px	    ground_marker_py	    ground_marker_pz	    ground_marker_px	    ground_marker_py	    ground_marker_pz	    ground_marker_px	    ground_marker_py	    ground_marker_pz	    ground_marker_px	    ground_marker_py	    ground_marker_pz	    ground_marker_px	    ground_marker_py	    ground_marker_pz	    ground_marker_px	    ground_marker_py	    ground_marker_pz	    ground_marker_px	    ground_marker_py	    ground_marker_pz	    ground_marker_px	    ground_marker_py	    ground_marker_pz	    ground_marker_px	    ground_marker_py	    ground_marker_pz	    ground_marker_px	    ground_marker_py	    ground_marker_pz	    ground_marker_px	    ground_marker_py	    ground_marker_pz	    ground_marker_px	    ground_marker_py	    ground_marker_pz	    ground_marker_px	    ground_marker_py	    ground_marker_pz	    ground_marker_px	    ground_marker_py	    ground_marker_pz	    ground_marker_px	    ground_marker_py	    ground_marker_pz	    ground_marker_px	    ground_marker_py	    ground_marker_pz	    ground_marker_px	    ground_marker_py	    ground_marker_pz	    ground_marker_px	    ground_marker_py	    ground_marker_pz	    ground_marker_px	    ground_marker_py	    ground_marker_pz	    ground_marker_px	    ground_marker_py	    ground_marker_pz	    ground_marker_px	    ground_marker_py	    ground_marker_pz	    ground_marker_px	    ground_marker_py	    ground_marker_pz	    ground_marker_px	    ground_marker_py	    ground_marker_pz	    ground_marker_px	    ground_marker_py	    ground_marker_pz	    ground_marker_px	    ground_marker_py	    ground_marker_pz	
          0.31666672	          1.01543546	          0.69908369	         -0.30864388	          5.26048040	          1.29412365	         -0.86212039	         18.29312706	         -7.33507586	        -10.69238663	        -40.89954758	          2.47605085	          0.00000000	          0.00000000	        -13.27316761	          7.34281778	          1.68951249	         -4.68849754	          8.55180168	          0.00000000	          0.00000000	        -22.19879532	          1.51156867	         -4.63279867	          0.00000000	          0.00000000	          0.00000000	          1.31316345	          0.00000000	         -0.21547029	          1.62533596	        194.17194900	          1.45234262	          0.94866638	          0.00000000	         -0.32578372	          0.00000000	          0.00000000	          0.00000000	          0.00000000	          0.35284277	          0.00000000	          0.96502304	          0.62459159	         -0.30569103	          0.97074485	          0.63550335	         -0.25200036	          0.97281104	          0.63792986	         -0.36940208	          1.09066582	          0.35801876	         -0.21675538	          0.93060547	          0.34211650	         -0.33784261	          1.00630832	          0.08155189	         -0.22081485	          0.86720252	          0.05886753	         -0.32874805	          1.01543546	          0.69908369	         -0.30864388	          1.01388335	          0.69726092	         -0.22045378	          1.01698744	          0.70090640	         -0.39683396	          0.87825513	          0.71522504	         -0.26348314	          0.87797129	          0.71529096	         -0.34911525	          1.07974887	          0.35897532	         -0.17207980	          0.93198919	          0.33683139	         -0.38553071	          1.10486829	          0.35717338	         -0.25552437	          0.91731977	          0.35065937	         -0.30029988	          0.99458510	          0.08467045	         -0.18958841	          0.86006141	          0.05944818	         -0.36044848	          1.01807415	          0.08229984	         -0.24592033	          0.86260891	          0.06084286	         -0.29533696	          0.94083679	          1.03781879	         -0.31442976	          1.02338338	          0.96410489	         -0.26135600	          1.03254938	          0.96614397	         -0.35034984	          1.01330757	          0.97852111	         -0.29924145	          1.04861772	          0.84128785	         -0.30397403	          1.17687309	          0.48862407	         -0.22558440	          1.01163721	          0.40621319	         -0.44500518	          1.08499324	          0.51097012	         -0.19197538	          1.00720429	          0.46962377	         -0.36873975	          1.10925019	          0.42666149	         -0.18482469	          0.98596936	          0.38943946	         -0.34449711	          1.02551687	          0.15540627	         -0.11687625	          0.97917169	          0.14838639	         -0.30277905	          1.04719388	          0.21846895	         -0.17467101	          0.93235111	          0.21161982	         -0.32984215	          1.08262920	          0.04911087	         -0.19138929	          0.94949895	          0.03633123	         -0.32187644	
          0.32500005	          1.02398348	          0.69826323	         -0.30722535	          5.34593582	          1.31416488	         -0.82735991	         18.72729683	         -7.03429747	        -12.53478050	        -37.65342712	          2.36544323	          0.00000000	          0.00000000	        -14.58003807	          7.14942360	          1.33791590	         -3.85060525	          8.57459164	          0.00000000	          0.00000000	        -22.41137695	          1.62756371	         -4.59968567	          0.00000000	          0.00000000	          0.00000000	          1.31702258	          0.00000000	         -0.21530984	          3.62928745	        198.44512638	          1.59192853	          0.94985602	          0.00000000	         -0.32542285	          0.00000000	          0.00000000	          0.00000000	          0.00000000	          0.33768130	          0.00000000	          0.97360820	          0.62370473	         -0.30422080	          0.97942054	          0.63459212	         -0.25058335	          0.98141706	          0.63707066	         -0.36798519	          1.10201454	          0.35796803	         -0.21704395	          0.93301386	          0.34247479	         -0.33766681	          1.03417265	          0.07569565	         -0.21552026	          0.86751539	          0.05941729	         -0.32867131	          1.02398348	          0.69826323	         -0.30722535	          1.02248323	          0.69640076	         -0.21900855	          1.02548361	          0.70012569	         -0.39544213	          0.88701147	          0.71401840	         -0.26184475	          0.88628507	          0.71443427	         -0.34754595	          1.08990037	          0.35797969	         -0.17266777	          0.93397117	          0.33740619	         -0.38538885	          1.11574638	          0.35695690	         -0.25599995	          0.92064726	          0.35102391	         -0.29987484	          1.02223945	          0.07873187	         -0.18436533	          0.86023480	          0.06009563	         -0.36033803	          1.04531598	          0.07651625	         -0.24071196	          0.86293256	          0.06156076	         -0.29518148	          0.95014238	          1.03681362	         -0.31330168	          1.03251481	          0.96276063	         -0.26042268	          1.04162896	          0.96500975	         -0.34939823	          1.02250981	          0.97730190	         -0.29824567	          1.05740857	          0.83999193	         -0.30336979	          1.18569767	          0.48849487	         -0.22121218	          1.01476574	          0.40573663	         -0.44503921	          1.09221590	          0.50926578	         -0.19014043	          1.01165020	          0.46875376	         -0.36895990	          1.11687529	          0.42499441	         -0.18378524	          0.98947495	          0.38886499	         -0.34461144	          1.04883873	          0.15296461	         -0.11334085	          0.98022348	          0.14844234	         -0.30313453	          1.06612480	          0.21581250	         -0.17247890	          0.93352783	          0.21200457	         -0.32978854	          1.11246705	          0.04829562	         -0.18663642	          0.94963622	          0.03630787	         -0.32187536	
          0.33333337	          1.03259301	          0.69726229	         -0.30580947	          5.42698479	          1.39105082	         -0.79964232	         19.03837395	         -6.76769257	        -14.12844849	        -34.16768265	          2.05628276	          0.00000000	          0.00000000	        -15.84158230	          7.01747513	          0.76391608	         -3.09550929	          8.62671471	          0.00000000	          0.00000000	        -22.62450027	          1.56520748	         -4.43730307	          0.00000000	          0.00000000	          0.00000000	          1.32070447	          0.00000000	         -0.21516473	          5.91412287	        202.90961501	          1.69390036	          0.95093225	          0.00000000	         -0.32505539	          0.00000000	          0.00000000	          0.00000000	          0.00000000	          0.31457651	          0.00000000	          0.98221678	          0.62265152	         -0.30286869	          0.98813951	          0.63344902	         -0.24924150	          0.99009413	          0.63609350	         -0.36664042	          1.11271930	          0.35752320	         -0.21749619	          0.93573064	          0.34282982	         -0.33752480	          1.06221271	          0.07070079	         -0.21054812	          0.86785686	          0.06001368	         -0.32860237	          1.03259301	          0.69726229	         -0.30580947	          1.03112364	          0.69527423	         -0.21755259	          1.03406250	          0.69925028	         -0.39406636	          0.89585078	          0.71259260	         -0.26034147	          0.89468223	          0.71345055	         -0.34600922	          1.09958637	          0.35666484	         -0.17341909	          0.93609309	          0.33802128	         -0.38528198	          1.12582314	          0.35599932	         -0.25644949	          0.92472744	          0.35086846	         -0.29947841	          1.05005169	          0.07359511	         -0.17946783	          0.86043215	          0.06079767	         -0.36023322	          1.07292235	          0.07153469	         -0.23566876	          0.86326933	          0.06229139	         -0.29503468	          0.95948231	          1.03557646	         -0.31210604	          1.04187572	          0.96130031	         -0.25953066	          1.05067348	          0.96363473	         -0.34837213	          1.03175974	          0.97588694	         -0.29723695	          1.06637120	          0.83853251	         -0.30262932	          1.19402802	          0.48761570	         -0.21757144	          1.01772130	          0.40527183	         -0.44530448	          1.09916604	          0.50692058	         -0.18856856	          1.01571369	          0.46797043	         -0.36965981	          1.12418532	          0.42265475	         -0.18298456	          0.99327523	          0.38822439	         -0.34503433	          1.07195723	          0.15104637	         -0.11007078	          0.98135823	          0.14847468	         -0.30353898	          1.08473587	          0.21348512	         -0.17056702	          0.93489295	          0.21260498	         -0.32976198	          1.14217842	          0.04820171	         -0.18211946	          0.94976461	          0.03630013	         -0.32189047	
          0.34166670	          1.04129171	          0.69607049	         -0.30443355	          5.49506521	          1.50848114	         -0.77300197	         19.22362137	         -6.53562450	        -15.32987213	        -30.49863052	          1.56466210	          0.00000000	          0.00000000	        -17.05215073	          6.93145180	          0.04190654	         -2.42654872	          8.70858383	          0.00000000	          0.00000000	        -22.78157425	          1.58784294	         -4.44318533	          0.00000000	          0.00000000	          0.00000000	          1.32409204	          0.00000000	         -0.21503285	          8.40587052	        207.74826932	          1.87793228	          0.95192603	          0.00000000	         -0.32472369	          0.00000000	          0.00000000	          0.00000000	          0.00000000	          0.29402969	          0.00000000	          0.99098027	          0.62140942	         -0.30169713	          0.99692756	          0.63208592	         -0.24798894	          0.99885207	          0.63497794	         -0.36538249	          1.12278092	          0.35662317	         -0.21805803	          0.93875659	          0.34314036	         -0.33742505	          1.09024084	          0.06666574	         -0.20605992	          0.86824012	          0.06064771	         -0.32855371	          1.04129171	          0.69607049	         -0.30443355	          1.03984404	          0.69389510	         -0.21612923	          1.04273927	          0.69824588	         -0.39273790	          0.90479070	          0.71096790	         -0.25900385	          0.90318668	          0.71234250	         -0.34451094	          1.10890186	          0.35504436	         -0.17423014	          0.93841147	          0.33863354	         -0.38521177	          1.13485026	          0.35472775	         -0.25782064	          0.92870593	          0.35095900	         -0.29935944	          1.07788432	          0.06933614	         -0.17503679	          0.86066735	          0.06154590	         -0.36014640	          1.10083127	          0.06756888	         -0.23090239	          0.86363053	          0.06306832	         -0.29494604	          0.96883315	          1.03415823	         -0.31089598	          1.05122042	          0.95960599	         -0.25854352	          1.06002092	          0.96214914	         -0.34744069	          1.04106593	          0.97428590	         -0.29620489	          1.07558000	          0.83691752	         -0.30197382	          1.20196688	          0.48602495	         -0.21496549	          1.02063370	          0.40481055	         -0.44573930	          1.10585690	          0.50400895	         -0.18726532	          1.02079546	          0.46703494	         -0.36989620	          1.13114429	          0.41969267	         -0.18295164	          0.99722630	          0.38741770	         -0.34561804	          1.09486234	          0.14960241	         -0.10713432	          0.98259306	          0.14844000	         -0.30399558	          1.10301578	          0.21159737	         -0.16896069	          0.93552369	          0.21313705	         -0.32984722	          1.17160892	          0.04890172	         -0.17797051	          0.94988775	          0.03630437	         -0.32192403	
